# Blender 4.1.1
# www.blender.org
mtllib hangar_untexturedv2.mtl
o Cube.001
v -6.178775 -0.760295 4.432958
v -6.178775 1.419517 4.432958
v -6.178775 -0.760295 -4.432958
v -6.178775 1.419517 -4.432958
v 6.178775 -0.760295 4.432958
v 6.178775 1.419517 4.432958
v 6.178775 -0.760295 -4.432958
v 6.178775 1.419517 -4.432958
v -6.178775 1.536885 4.432958
v -6.178775 1.536885 -4.432958
v 6.178775 1.536885 -4.432958
v 6.178775 1.536885 4.432958
v -6.178775 -0.760295 -3.324718
v -6.178775 -0.760295 -2.216479
v -6.178775 -0.760295 -1.108239
v -6.178775 -0.760295 0.000000
v -6.178775 -0.760295 1.108239
v -6.178775 -0.760295 2.216479
v -6.178775 -0.760295 3.324718
v -6.178775 1.419517 3.324718
v -6.178775 1.419517 2.216479
v -6.178775 1.419517 1.108239
v -6.178775 1.419517 0.000000
v -6.178775 1.419517 -1.108239
v -6.178775 1.419517 -2.216479
v -6.178775 1.419517 -3.324718
v 6.178775 -0.760295 3.324718
v 6.178775 -0.760295 2.216479
v 6.178775 -0.760295 1.108239
v 6.178775 -0.760295 0.000000
v 6.178775 -0.760295 -1.108239
v 6.178775 -0.760295 -2.216479
v 6.178775 -0.760295 -3.324718
v 6.178775 1.419517 -3.324718
v 6.178775 1.419517 -2.216479
v 6.178775 1.419517 -1.108239
v 6.178775 1.419517 0.000000
v 6.178775 1.419517 1.108239
v 6.178775 1.419517 2.216479
v 6.178775 1.419517 3.324718
v -6.178775 2.107241 3.324718
v -6.178775 2.389645 2.216479
v -6.178775 2.514158 1.108239
v -6.178775 2.576856 0.000000
v -6.178775 2.514158 -1.108239
v -6.178775 2.389645 -2.216479
v -6.178775 2.107241 -3.324718
v 6.178775 2.107241 -3.324718
v 6.178775 2.389645 -2.216479
v 6.178775 2.514158 -1.108239
v 6.178775 2.576856 0.000000
v 6.178775 2.514158 1.108239
v 6.178775 2.389645 2.216479
v 6.178775 2.107241 3.324718
v 5.055361 -0.760295 -4.432958
v 3.931948 -0.760295 -4.432958
v 2.808534 -0.760295 -4.432958
v 1.685121 -0.760295 -4.432958
v 0.561707 -0.760295 -4.432958
v -0.561707 -0.760295 -4.432958
v -1.685120 -0.760295 -4.432958
v -2.808534 -0.760295 -4.432958
v -3.931948 -0.760295 -4.432958
v -5.055361 -0.760295 -4.432958
v -5.055361 1.419517 -4.432958
v -3.931948 1.419517 -4.432958
v -2.808534 1.419517 -4.432958
v -1.685121 1.419517 -4.432958
v -0.561707 1.419517 -4.432958
v 0.561707 1.419517 -4.432958
v 1.685120 1.419517 -4.432958
v 2.808534 1.419517 -4.432958
v 3.931948 1.419517 -4.432958
v 5.055361 1.419517 -4.432958
v -5.055361 -0.760295 4.432958
v -3.931948 -0.760295 4.432958
v -2.808534 -0.760295 4.432958
v -1.685121 -0.760295 4.432958
v -0.561707 -0.760295 4.432958
v 0.561707 -0.760295 4.432958
v 1.685120 -0.760295 4.432958
v 2.808534 -0.760295 4.432958
v 3.931948 -0.760295 4.432958
v 5.055361 -0.760295 4.432958
v 5.055361 1.419517 4.432958
v 3.931948 1.419517 4.432958
v 2.808534 1.419517 4.432958
v 1.685121 1.419517 4.432958
v 0.561707 1.419517 4.432958
v -0.561707 1.419517 4.432958
v -1.685120 1.419517 4.432958
v -2.808534 1.419517 4.432958
v -3.931948 1.419517 4.432958
v -5.055361 1.419517 4.432958
v -5.055361 1.536885 -4.432958
v -3.931948 1.536885 -4.432958
v -2.808534 1.536885 -4.432958
v -1.685121 1.536885 -4.432958
v -0.561707 1.536885 -4.432958
v 0.561707 1.536885 -4.432958
v 1.685120 1.536885 -4.432958
v 2.808534 1.536885 -4.432958
v 3.931948 1.536885 -4.432958
v 5.055361 1.536885 -4.432958
v 5.055361 1.536885 4.432958
v 3.931948 1.536885 4.432958
v 2.808534 1.536885 4.432958
v 1.685121 1.536885 4.432958
v 0.561707 1.536885 4.432958
v -0.561707 1.536885 4.432958
v -1.685120 1.536885 4.432958
v -2.808534 1.536885 4.432958
v -3.931948 1.536885 4.432958
v -5.055361 1.536885 4.432958
v -5.055361 2.107241 -3.324718
v -3.931948 2.107241 -3.324718
v -2.808534 2.107241 -3.324718
v -1.685121 2.107241 -3.324718
v -0.561707 2.107241 -3.324718
v 0.561707 2.107241 -3.324718
v 1.685120 2.107241 -3.324718
v 2.808534 2.107241 -3.324718
v 3.931948 2.107241 -3.324718
v 5.055361 2.107241 -3.324718
v -5.055361 2.389645 -2.216479
v -3.931948 2.389645 -2.216479
v -2.808534 2.389645 -2.216479
v -1.685121 2.389645 -2.216479
v -0.561707 2.389645 -2.216479
v 0.561707 2.389645 -2.216479
v 1.685120 2.389645 -2.216479
v 2.808534 2.389645 -2.216479
v 3.931948 2.389645 -2.216479
v 5.055361 2.389645 -2.216479
v -5.055361 2.514158 -1.108239
v -3.931948 2.514158 -1.108239
v -2.808534 2.514158 -1.108239
v -1.685121 2.514158 -1.108239
v -0.561707 2.514158 -1.108239
v 0.561707 2.514158 -1.108239
v 1.685120 2.514158 -1.108239
v 2.808534 2.514158 -1.108239
v 3.931948 2.514158 -1.108239
v 5.055361 2.514158 -1.108239
v -5.055361 2.576856 0.000000
v -3.931948 2.576856 0.000000
v -2.808534 2.576856 0.000000
v -1.685121 2.576856 0.000000
v -0.561707 2.576856 0.000000
v 0.561707 2.576856 0.000000
v 1.685120 2.576856 0.000000
v 2.808534 2.576856 0.000000
v 3.931948 2.576856 0.000000
v 5.055361 2.576856 0.000000
v -5.055361 2.514158 1.108239
v -3.931948 2.514158 1.108239
v -2.808534 2.514158 1.108239
v -1.685121 2.514158 1.108239
v -0.561707 2.514158 1.108239
v 0.561707 2.514158 1.108239
v 1.685120 2.514158 1.108239
v 2.808534 2.514158 1.108239
v 3.931948 2.514158 1.108239
v 5.055361 2.514158 1.108239
v -5.055361 2.389645 2.216479
v -3.931948 2.389645 2.216479
v -2.808534 2.389645 2.216479
v -1.685121 2.389645 2.216479
v -0.561707 2.389645 2.216479
v 0.561707 2.389645 2.216479
v 1.685120 2.389645 2.216479
v 2.808534 2.389645 2.216479
v 3.931948 2.389645 2.216479
v 5.055361 2.389645 2.216479
v -5.055361 2.107241 3.324718
v -3.931948 2.107241 3.324718
v -2.808534 2.107241 3.324718
v -1.685121 2.107241 3.324718
v -0.561707 2.107241 3.324718
v 0.561707 2.107241 3.324718
v 1.685120 2.107241 3.324718
v 2.808534 2.107241 3.324718
v 3.931948 2.107241 3.324718
v 5.055361 2.107241 3.324718
v 5.055361 -0.760295 -3.324718
v 3.931948 -0.760295 -3.324718
v 2.808534 -0.760295 -3.324718
v 1.685121 -0.760295 -3.324718
v 0.561707 -0.760295 -3.324718
v -0.561707 -0.760295 -3.324718
v -1.685120 -0.760295 -3.324718
v -2.808534 -0.760295 -3.324718
v -3.931948 -0.760295 -3.324718
v -5.055361 -0.760295 -3.324718
v 5.055361 -0.760295 -2.216479
v 3.931948 -0.760295 -2.216479
v 2.808534 -0.760295 -2.216479
v 1.685121 -0.760295 -2.216479
v 0.561707 -0.760295 -2.216479
v -0.561707 -0.760295 -2.216479
v -1.685120 -0.760295 -2.216479
v -2.808534 -0.760295 -2.216479
v -3.931948 -0.760295 -2.216479
v -5.055361 -0.760295 -2.216479
v 5.055361 -0.760295 -1.108239
v 3.931948 -0.760295 -1.108239
v 2.808534 -0.760295 -1.108239
v 1.685121 -0.760295 -1.108239
v 0.561707 -0.760295 -1.108239
v -0.561707 -0.760295 -1.108239
v -1.685120 -0.760295 -1.108239
v -2.808534 -0.760295 -1.108239
v -3.931948 -0.760295 -1.108239
v -5.055361 -0.760295 -1.108239
v 5.055361 -0.760295 0.000000
v 3.931948 -0.760295 0.000000
v 2.808534 -0.760295 0.000000
v 1.685121 -0.760295 0.000000
v 0.561707 -0.760295 0.000000
v -0.561707 -0.760295 0.000000
v -1.685120 -0.760295 0.000000
v -2.808534 -0.760295 0.000000
v -3.931948 -0.760295 0.000000
v -5.055361 -0.760295 0.000000
v 5.055361 -0.760295 1.108239
v 3.931948 -0.760295 1.108239
v 2.808534 -0.760295 1.108239
v 1.685121 -0.760295 1.108239
v 0.561707 -0.760295 1.108239
v -0.561707 -0.760295 1.108239
v -1.685120 -0.760295 1.108239
v -2.808534 -0.760295 1.108239
v -3.931948 -0.760295 1.108239
v -5.055361 -0.760295 1.108239
v 5.055361 -0.760295 2.216479
v 3.931948 -0.760295 2.216479
v 2.808534 -0.760295 2.216479
v 1.685121 -0.760295 2.216479
v 0.561707 -0.760295 2.216479
v -0.561707 -0.760295 2.216479
v -1.685120 -0.760295 2.216479
v -2.808534 -0.760295 2.216479
v -3.931948 -0.760295 2.216479
v -5.055361 -0.760295 2.216479
v 5.055361 -0.760295 3.324718
v 3.931948 -0.760295 3.324718
v 2.808534 -0.760295 3.324718
v 1.685121 -0.760295 3.324718
v 0.561707 -0.760295 3.324718
v -0.561707 -0.760295 3.324718
v -1.685120 -0.760295 3.324718
v -2.808534 -0.760295 3.324718
v -3.931948 -0.760295 3.324718
v -5.055361 -0.760295 3.324718
v -6.118231 -0.711173 3.272327
v -6.118231 -0.711173 4.363103
v -6.118231 1.400818 4.363103
v -6.118231 1.400818 -3.272327
v -6.118231 1.400818 -4.363103
v -6.118231 -0.711173 -4.363103
v -5.005825 -0.711173 -4.363103
v 5.005825 1.400818 -4.363103
v 6.118231 1.400818 -4.363103
v 6.118231 -0.711173 -4.363103
v 6.118231 -0.711173 -3.272327
v 6.118231 1.400818 3.272327
v 6.118231 1.400818 4.363103
v 6.118231 -0.711173 4.363103
v 5.005825 -0.711173 4.363103
v -5.005825 1.400818 4.363103
v -6.118231 2.067144 -3.272327
v -6.118231 1.514534 -4.363103
v 5.005825 1.514534 -4.363103
v 6.118231 1.514534 -4.363103
v 6.118231 2.067144 3.272327
v 6.118231 1.514534 4.363103
v -5.005825 1.514534 4.363103
v -6.118231 1.514534 4.363103
v -6.118231 -0.711173 -3.272327
v -6.118231 -0.711173 -2.181551
v -6.118231 -0.711173 -1.090776
v -6.118231 -0.711173 0.000000
v -6.118231 -0.711173 1.090776
v -6.118231 -0.711173 2.181551
v -6.118231 1.400818 3.272327
v -6.118231 1.400818 2.181551
v -6.118231 1.400818 1.090776
v -6.118231 1.400818 0.000000
v -6.118231 1.400818 -1.090776
v -6.118231 1.400818 -2.181551
v 6.118231 -0.711173 3.272327
v 6.118231 -0.711173 2.181551
v 6.118231 -0.711173 1.090776
v 6.118231 -0.711173 0.000000
v 6.118231 -0.711173 -1.090776
v 6.118231 -0.711173 -2.181551
v 6.118231 1.400818 -3.272327
v 6.118231 1.400818 -2.181551
v 6.118231 1.400818 -1.090776
v 6.118231 1.400818 0.000000
v 6.118231 1.400818 1.090776
v 6.118231 1.400818 2.181551
v -6.118231 2.067144 3.272327
v -6.118231 2.340762 2.181551
v -6.118231 2.461401 1.090776
v -6.118231 2.522148 0.000000
v -6.118231 2.461401 -1.090776
v -6.118231 2.340762 -2.181551
v 6.118231 2.067144 -3.272327
v 6.118231 2.340762 -2.181551
v 6.118231 2.461401 -1.090776
v 6.118231 2.522148 0.000000
v 6.118231 2.461401 1.090776
v 6.118231 2.340762 2.181551
v 5.005825 2.067144 -3.272327
v 5.005825 2.340762 -2.181551
v 5.005825 2.461401 -1.090776
v 5.005825 2.522148 0.000000
v 5.005825 2.461401 1.090776
v 5.005825 2.340762 2.181551
v 5.005825 2.067144 3.272327
v -5.005825 -0.711173 -3.272327
v -5.005825 -0.711173 -2.181551
v -5.005825 -0.711173 -1.090776
v -5.005825 -0.711173 0.000000
v -5.005825 -0.711173 1.090776
v -5.005825 -0.711173 2.181551
v -5.005825 -0.711173 3.272327
v 5.005825 -0.711173 -4.363103
v 3.893420 -0.711173 -4.363103
v 2.781014 -0.711173 -4.363103
v 1.668609 -0.711173 -4.363103
v 0.556203 -0.711173 -4.363103
v -0.556203 -0.711173 -4.363103
v -1.668608 -0.711173 -4.363103
v -2.781014 -0.711173 -4.363103
v -3.893420 -0.711173 -4.363103
v -5.005825 1.400818 -4.363103
v -3.893420 1.400818 -4.363103
v -2.781014 1.400818 -4.363103
v -1.668609 1.400818 -4.363103
v -0.556203 1.400818 -4.363103
v 0.556203 1.400818 -4.363103
v 1.668608 1.400818 -4.363103
v 2.781014 1.400818 -4.363103
v 3.893420 1.400818 -4.363103
v -5.005825 -0.711173 4.363103
v -3.893420 -0.711173 4.363103
v -2.781014 -0.711173 4.363103
v -1.668609 -0.711173 4.363103
v -0.556203 -0.711173 4.363103
v 0.556203 -0.711173 4.363103
v 1.668608 -0.711173 4.363103
v 2.781014 -0.711173 4.363103
v 3.893420 -0.711173 4.363103
v 5.005825 1.400818 4.363103
v 3.893420 1.400818 4.363103
v 2.781014 1.400818 4.363103
v 1.668609 1.400818 4.363103
v 0.556203 1.400818 4.363103
v -0.556203 1.400818 4.363103
v -1.668608 1.400818 4.363103
v -2.781014 1.400818 4.363103
v -3.893420 1.400818 4.363103
v -5.005825 1.514534 -4.363103
v -3.893420 1.514534 -4.363103
v -2.781014 1.514534 -4.363103
v -1.668609 1.514534 -4.363103
v -0.556203 1.514534 -4.363103
v 0.556203 1.514534 -4.363103
v 1.668608 1.514534 -4.363103
v 2.781014 1.514534 -4.363103
v 3.893420 1.514534 -4.363103
v 5.005825 1.514534 4.363103
v 3.893420 1.514534 4.363103
v 2.781014 1.514534 4.363103
v 1.668609 1.514534 4.363103
v 0.556203 1.514534 4.363103
v -0.556203 1.514534 4.363103
v -1.668608 1.514534 4.363103
v -2.781014 1.514534 4.363103
v -3.893420 1.514534 4.363103
v -5.005825 2.067144 -3.272327
v -3.893420 2.067144 -3.272327
v -2.781014 2.067144 -3.272327
v -1.668609 2.067144 -3.272327
v -0.556203 2.067144 -3.272327
v 0.556203 2.067144 -3.272327
v 1.668608 2.067144 -3.272327
v 2.781014 2.067144 -3.272327
v 3.893420 2.067144 -3.272327
v -5.005825 2.340762 -2.181551
v -3.893420 2.340762 -2.181551
v -2.781014 2.340762 -2.181551
v -1.668609 2.340762 -2.181551
v -0.556203 2.340762 -2.181551
v 0.556203 2.340762 -2.181551
v 1.668608 2.340762 -2.181551
v 2.781014 2.340762 -2.181551
v 3.893420 2.340762 -2.181551
v -5.005825 2.461401 -1.090776
v -3.893420 2.461401 -1.090776
v -2.781014 2.461401 -1.090776
v -1.668609 2.461401 -1.090776
v -0.556203 2.461401 -1.090776
v 0.556203 2.461401 -1.090776
v 1.668608 2.461401 -1.090776
v 2.781014 2.461401 -1.090776
v 3.893420 2.461401 -1.090776
v -5.005825 2.522148 0.000000
v -3.893420 2.522148 0.000000
v -2.781014 2.522148 0.000000
v -1.668609 2.522148 0.000000
v -0.556203 2.522148 0.000000
v 0.556203 2.522148 0.000000
v 1.668608 2.522148 0.000000
v 2.781014 2.522148 0.000000
v 3.893420 2.522148 0.000000
v -5.005825 2.461401 1.090776
v -3.893420 2.461401 1.090776
v -2.781014 2.461401 1.090776
v -1.668609 2.461401 1.090776
v -0.556203 2.461401 1.090776
v 0.556203 2.461401 1.090776
v 1.668608 2.461401 1.090776
v 2.781014 2.461401 1.090776
v 3.893420 2.461401 1.090776
v -5.005825 2.340762 2.181551
v -3.893420 2.340762 2.181551
v -2.781014 2.340762 2.181551
v -1.668609 2.340762 2.181551
v -0.556203 2.340762 2.181551
v 0.556203 2.340762 2.181551
v 1.668608 2.340762 2.181551
v 2.781014 2.340762 2.181551
v 3.893420 2.340762 2.181551
v -5.005825 2.067144 3.272327
v -3.893420 2.067144 3.272327
v -2.781014 2.067144 3.272327
v -1.668609 2.067144 3.272327
v -0.556203 2.067144 3.272327
v 0.556203 2.067144 3.272327
v 1.668608 2.067144 3.272327
v 2.781014 2.067144 3.272327
v 3.893420 2.067144 3.272327
v 5.005825 -0.711173 -3.272327
v 3.893420 -0.711173 -3.272327
v 2.781014 -0.711173 -3.272327
v 1.668609 -0.711173 -3.272327
v 0.556203 -0.711173 -3.272327
v -0.556203 -0.711173 -3.272327
v -1.668608 -0.711173 -3.272327
v -2.781014 -0.711173 -3.272327
v -3.893420 -0.711173 -3.272327
v 5.005825 -0.711173 -2.181551
v 3.893420 -0.711173 -2.181551
v 2.781014 -0.711173 -2.181551
v 1.668609 -0.711173 -2.181551
v 0.556203 -0.711173 -2.181551
v -0.556203 -0.711173 -2.181551
v -1.668608 -0.711173 -2.181551
v -2.781014 -0.711173 -2.181551
v -3.893420 -0.711173 -2.181551
v 5.005825 -0.711173 -1.090776
v 3.893420 -0.711173 -1.090776
v 2.781014 -0.711173 -1.090776
v 1.668609 -0.711173 -1.090776
v 0.556203 -0.711173 -1.090776
v -0.556203 -0.711173 -1.090776
v -1.668608 -0.711173 -1.090776
v -2.781014 -0.711173 -1.090776
v -3.893420 -0.711173 -1.090776
v 5.005825 -0.711173 0.000000
v 3.893420 -0.711173 0.000000
v 2.781014 -0.711173 0.000000
v 1.668609 -0.711173 0.000000
v 0.556203 -0.711173 0.000000
v -0.556203 -0.711173 0.000000
v -1.668608 -0.711173 0.000000
v -2.781014 -0.711173 0.000000
v -3.893420 -0.711173 0.000000
v 5.005825 -0.711173 1.090776
v 3.893420 -0.711173 1.090776
v 2.781014 -0.711173 1.090776
v 1.668609 -0.711173 1.090776
v 0.556203 -0.711173 1.090776
v -0.556203 -0.711173 1.090776
v -1.668608 -0.711173 1.090776
v -2.781014 -0.711173 1.090776
v -3.893420 -0.711173 1.090776
v 5.005825 -0.711173 2.181551
v 3.893420 -0.711173 2.181551
v 2.781014 -0.711173 2.181551
v 1.668609 -0.711173 2.181551
v 0.556203 -0.711173 2.181551
v -0.556203 -0.711173 2.181551
v -1.668608 -0.711173 2.181551
v -2.781014 -0.711173 2.181551
v -3.893420 -0.711173 2.181551
v 5.005825 -0.711173 3.272327
v 3.893420 -0.711173 3.272327
v 2.781014 -0.711173 3.272327
v 1.668609 -0.711173 3.272327
v 0.556203 -0.711173 3.272327
v -0.556203 -0.711173 3.272327
v -1.668608 -0.711173 3.272327
v -2.781014 -0.711173 3.272327
v -3.893420 -0.711173 3.272327
vn 1.0000 -0.0000 -0.0000
vn -0.0000 -0.0000 1.0000
vn -1.0000 -0.0000 -0.0000
vn -0.0000 -0.0000 -1.0000
vn -0.0000 1.0000 -0.0000
vn -0.0000 -0.8892 -0.4576
vn -0.0000 -0.8892 0.4576
vn -0.0000 -0.9690 0.2469
vn -0.0000 -0.9937 0.1116
vn -0.0000 -0.9984 0.0565
vn -0.0000 -0.9984 -0.0565
vn -0.0000 -0.9937 -0.1116
vn -0.0000 -0.9690 -0.2469
vn -0.0000 -1.0000 -0.0000
vn -0.0000 0.8921 0.4519
vn -0.0000 0.8921 -0.4519
vn -0.0000 0.9699 -0.2433
vn -0.0000 0.9939 -0.1099
vn -0.0000 0.9985 -0.0556
vn -0.0000 0.9985 0.0556
vn -0.0000 0.9939 0.1099
vn -0.0000 0.9699 0.2433
vn -0.4997 -0.0000 -0.8662
vn -0.6301 -0.7766 -0.0000
vn -0.2951 0.9555 -0.0000
vn -0.4997 -0.0000 0.8662
vt 0.375000 0.218750
vt 0.375000 0.250000
vt 0.625000 0.250000
vt 0.625000 0.218750
vt 0.375000 0.477273
vt 0.375000 0.500000
vt 0.625000 0.500000
vt 0.625000 0.477273
vt 0.375000 0.718750
vt 0.375000 0.750000
vt 0.625000 0.750000
vt 0.625000 0.718750
vt 0.375000 0.977273
vt 0.375000 1.000000
vt 0.625000 1.000000
vt 0.625000 0.977273
vt 0.352273 0.718750
vt 0.352273 0.750000
vt 0.625000 0.531250
vt 0.852273 0.718750
vt 0.852273 0.750000
vt 0.875000 0.750000
vt 0.875000 0.718750
vt 0.625000 0.031250
vt 0.625000 0.000000
vt 0.625000 0.772727
vt 0.625000 0.272727
vt 0.625000 0.187500
vt 0.625000 0.156250
vt 0.625000 0.125000
vt 0.625000 0.093750
vt 0.625000 0.062500
vt 0.852273 0.500000
vt 0.852273 0.531250
vt 0.875000 0.531250
vt 0.875000 0.500000
vt 0.852273 0.562500
vt 0.875000 0.562500
vt 0.852273 0.593750
vt 0.875000 0.593750
vt 0.852273 0.625000
vt 0.875000 0.625000
vt 0.852273 0.656250
vt 0.875000 0.656250
vt 0.852273 0.687500
vt 0.875000 0.687500
vt 0.625000 0.687500
vt 0.625000 0.656250
vt 0.625000 0.625000
vt 0.625000 0.593750
vt 0.625000 0.562500
vt 0.352273 0.500000
vt 0.352273 0.531250
vt 0.375000 0.531250
vt 0.352273 0.562500
vt 0.375000 0.562500
vt 0.352273 0.593750
vt 0.375000 0.593750
vt 0.352273 0.625000
vt 0.375000 0.625000
vt 0.352273 0.656250
vt 0.375000 0.656250
vt 0.352273 0.687500
vt 0.375000 0.687500
vt 0.375000 0.000000
vt 0.375000 0.031250
vt 0.375000 0.062500
vt 0.375000 0.093750
vt 0.375000 0.125000
vt 0.375000 0.156250
vt 0.375000 0.187500
vt 0.125000 0.687500
vt 0.125000 0.718750
vt 0.147727 0.718750
vt 0.147727 0.687500
vt 0.170455 0.718750
vt 0.170455 0.687500
vt 0.193182 0.718750
vt 0.193182 0.687500
vt 0.215909 0.718750
vt 0.215909 0.687500
vt 0.238636 0.718750
vt 0.238636 0.687500
vt 0.261364 0.718750
vt 0.261364 0.687500
vt 0.284091 0.718750
vt 0.284091 0.687500
vt 0.306818 0.718750
vt 0.306818 0.687500
vt 0.329545 0.718750
vt 0.329545 0.687500
vt 0.125000 0.656250
vt 0.147727 0.656250
vt 0.170455 0.656250
vt 0.193182 0.656250
vt 0.215909 0.656250
vt 0.238636 0.656250
vt 0.261364 0.656250
vt 0.284091 0.656250
vt 0.306818 0.656250
vt 0.329545 0.656250
vt 0.125000 0.625000
vt 0.147727 0.625000
vt 0.170455 0.625000
vt 0.193182 0.625000
vt 0.215909 0.625000
vt 0.238636 0.625000
vt 0.261364 0.625000
vt 0.284091 0.625000
vt 0.306818 0.625000
vt 0.329545 0.625000
vt 0.125000 0.593750
vt 0.147727 0.593750
vt 0.170455 0.593750
vt 0.193182 0.593750
vt 0.215909 0.593750
vt 0.238636 0.593750
vt 0.261364 0.593750
vt 0.284091 0.593750
vt 0.306818 0.593750
vt 0.329545 0.593750
vt 0.125000 0.562500
vt 0.147727 0.562500
vt 0.170455 0.562500
vt 0.193182 0.562500
vt 0.215909 0.562500
vt 0.238636 0.562500
vt 0.261364 0.562500
vt 0.284091 0.562500
vt 0.306818 0.562500
vt 0.329545 0.562500
vt 0.125000 0.531250
vt 0.147727 0.531250
vt 0.170455 0.531250
vt 0.193182 0.531250
vt 0.215909 0.531250
vt 0.238636 0.531250
vt 0.261364 0.531250
vt 0.284091 0.531250
vt 0.306818 0.531250
vt 0.329545 0.531250
vt 0.125000 0.500000
vt 0.147727 0.500000
vt 0.170455 0.500000
vt 0.193182 0.500000
vt 0.215909 0.500000
vt 0.238636 0.500000
vt 0.261364 0.500000
vt 0.284091 0.500000
vt 0.306818 0.500000
vt 0.329545 0.500000
vt 0.647727 0.718750
vt 0.647727 0.687500
vt 0.670455 0.718750
vt 0.670455 0.687500
vt 0.693182 0.718750
vt 0.693182 0.687500
vt 0.715909 0.718750
vt 0.715909 0.687500
vt 0.738636 0.718750
vt 0.738636 0.687500
vt 0.761364 0.718750
vt 0.761364 0.687500
vt 0.784091 0.718750
vt 0.784091 0.687500
vt 0.806818 0.718750
vt 0.806818 0.687500
vt 0.829545 0.718750
vt 0.829545 0.687500
vt 0.647727 0.656250
vt 0.670455 0.656250
vt 0.693182 0.656250
vt 0.715909 0.656250
vt 0.738636 0.656250
vt 0.761364 0.656250
vt 0.784091 0.656250
vt 0.806818 0.656250
vt 0.829545 0.656250
vt 0.647727 0.625000
vt 0.670455 0.625000
vt 0.693182 0.625000
vt 0.715909 0.625000
vt 0.738636 0.625000
vt 0.761364 0.625000
vt 0.784091 0.625000
vt 0.806818 0.625000
vt 0.829545 0.625000
vt 0.647727 0.593750
vt 0.670455 0.593750
vt 0.693182 0.593750
vt 0.715909 0.593750
vt 0.738636 0.593750
vt 0.761364 0.593750
vt 0.784091 0.593750
vt 0.806818 0.593750
vt 0.829545 0.593750
vt 0.647727 0.562500
vt 0.670455 0.562500
vt 0.693182 0.562500
vt 0.715909 0.562500
vt 0.738636 0.562500
vt 0.761364 0.562500
vt 0.784091 0.562500
vt 0.806818 0.562500
vt 0.829545 0.562500
vt 0.647727 0.531250
vt 0.670455 0.531250
vt 0.693182 0.531250
vt 0.715909 0.531250
vt 0.738636 0.531250
vt 0.761364 0.531250
vt 0.784091 0.531250
vt 0.806818 0.531250
vt 0.829545 0.531250
vt 0.647727 0.500000
vt 0.670455 0.500000
vt 0.693182 0.500000
vt 0.715909 0.500000
vt 0.738636 0.500000
vt 0.761364 0.500000
vt 0.784091 0.500000
vt 0.806818 0.500000
vt 0.829545 0.500000
vt 0.625000 0.454545
vt 0.625000 0.431818
vt 0.625000 0.409091
vt 0.625000 0.386364
vt 0.625000 0.363636
vt 0.625000 0.340909
vt 0.625000 0.318182
vt 0.625000 0.295455
vt 0.625000 0.954545
vt 0.625000 0.931818
vt 0.625000 0.909091
vt 0.625000 0.886364
vt 0.625000 0.863636
vt 0.625000 0.840909
vt 0.625000 0.818182
vt 0.625000 0.795455
vt 0.647727 0.750000
vt 0.670455 0.750000
vt 0.693182 0.750000
vt 0.715909 0.750000
vt 0.738636 0.750000
vt 0.761364 0.750000
vt 0.784091 0.750000
vt 0.806818 0.750000
vt 0.829545 0.750000
vt 0.125000 0.750000
vt 0.147727 0.750000
vt 0.170455 0.750000
vt 0.193182 0.750000
vt 0.215909 0.750000
vt 0.238636 0.750000
vt 0.261364 0.750000
vt 0.284091 0.750000
vt 0.306818 0.750000
vt 0.329545 0.750000
vt 0.375000 0.772727
vt 0.375000 0.795455
vt 0.375000 0.818182
vt 0.375000 0.840909
vt 0.375000 0.863636
vt 0.375000 0.886364
vt 0.375000 0.909091
vt 0.375000 0.931818
vt 0.375000 0.954545
vt 0.375000 0.272727
vt 0.375000 0.295455
vt 0.375000 0.318182
vt 0.375000 0.340909
vt 0.375000 0.363636
vt 0.375000 0.386364
vt 0.375000 0.409091
vt 0.375000 0.431818
vt 0.375000 0.454545
s 0
f 13/1/1 3/2/1 4/3/1 26/4/1
f 55/5/2 7/6/2 8/7/2 74/8/2
f 27/9/3 5/10/3 6/11/3 40/12/3
f 75/13/4 1/14/4 2/15/4 94/16/4
f 245/17/5 84/18/5 5/10/5 27/9/5
f 34/19/3 48/19/3 11/7/3 8/7/3
f 175/20/6 114/21/6 9/22/6 41/23/6
f 20/24/1 41/24/1 9/25/1 2/25/1
f 85/26/4 105/26/4 12/11/4 6/11/4
f 65/27/2 95/27/2 10/3/2 4/3/2
f 4/3/1 10/3/1 47/4/1 26/4/1
f 26/4/1 47/4/1 46/28/1 25/28/1
f 25/28/1 46/28/1 45/29/1 24/29/1
f 24/29/1 45/29/1 44/30/1 23/30/1
f 23/30/1 44/30/1 43/31/1 22/31/1
f 22/31/1 43/31/1 42/32/1 21/32/1
f 21/32/1 42/32/1 41/24/1 20/24/1
f 95/33/7 115/34/7 47/35/7 10/36/7
f 115/34/8 125/37/8 46/38/8 47/35/8
f 125/37/9 135/39/9 45/40/9 46/38/9
f 135/39/10 145/41/10 44/42/10 45/40/10
f 145/41/11 155/43/11 43/44/11 44/42/11
f 155/43/12 165/45/12 42/46/12 43/44/12
f 165/45/13 175/20/13 41/23/13 42/46/13
f 6/11/3 12/11/3 54/12/3 40/12/3
f 40/12/3 54/12/3 53/47/3 39/47/3
f 39/47/3 53/47/3 52/48/3 38/48/3
f 38/48/3 52/48/3 51/49/3 37/49/3
f 37/49/3 51/49/3 50/50/3 36/50/3
f 36/50/3 50/50/3 49/51/3 35/51/3
f 35/51/3 49/51/3 48/19/3 34/19/3
f 55/52/5 185/53/5 33/54/5 7/6/5
f 185/53/5 195/55/5 32/56/5 33/54/5
f 195/55/5 205/57/5 31/58/5 32/56/5
f 205/57/5 215/59/5 30/60/5 31/58/5
f 215/59/5 225/61/5 29/62/5 30/60/5
f 225/61/5 235/63/5 28/64/5 29/62/5
f 235/63/5 245/17/5 27/9/5 28/64/5
f 7/6/3 33/54/3 34/19/3 8/7/3
f 33/54/3 32/56/3 35/51/3 34/19/3
f 28/64/3 27/9/3 40/12/3 39/47/3
f 1/65/1 19/66/1 20/24/1 2/25/1
f 19/66/1 18/67/1 21/32/1 20/24/1
f 18/67/1 17/68/1 22/31/1 21/32/1
f 17/68/1 16/69/1 23/30/1 22/31/1
f 16/69/1 15/70/1 24/29/1 23/30/1
f 15/70/1 14/71/1 25/28/1 24/29/1
f 14/71/1 13/1/1 26/4/1 25/28/1
f 18/72/5 19/73/5 254/74/5 244/75/5
f 244/75/5 254/74/5 253/76/5 243/77/5
f 243/77/5 253/76/5 252/78/5 242/79/5
f 242/79/5 252/78/5 251/80/5 241/81/5
f 241/81/5 251/80/5 250/82/5 240/83/5
f 240/83/5 250/82/5 249/84/5 239/85/5
f 239/85/5 249/84/5 248/86/5 238/87/5
f 238/87/5 248/86/5 247/88/5 237/89/5
f 237/89/5 247/88/5 246/90/5 236/91/5
f 236/91/5 246/90/5 245/17/5 235/63/5
f 17/92/5 18/72/5 244/75/5 234/93/5
f 234/93/5 244/75/5 243/77/5 233/94/5
f 233/94/5 243/77/5 242/79/5 232/95/5
f 232/95/5 242/79/5 241/81/5 231/96/5
f 231/96/5 241/81/5 240/83/5 230/97/5
f 230/97/5 240/83/5 239/85/5 229/98/5
f 229/98/5 239/85/5 238/87/5 228/99/5
f 228/99/5 238/87/5 237/89/5 227/100/5
f 227/100/5 237/89/5 236/91/5 226/101/5
f 226/101/5 236/91/5 235/63/5 225/61/5
f 16/102/5 17/92/5 234/93/5 224/103/5
f 224/103/5 234/93/5 233/94/5 223/104/5
f 223/104/5 233/94/5 232/95/5 222/105/5
f 222/105/5 232/95/5 231/96/5 221/106/5
f 221/106/5 231/96/5 230/97/5 220/107/5
f 220/107/5 230/97/5 229/98/5 219/108/5
f 219/108/5 229/98/5 228/99/5 218/109/5
f 218/109/5 228/99/5 227/100/5 217/110/5
f 217/110/5 227/100/5 226/101/5 216/111/5
f 216/111/5 226/101/5 225/61/5 215/59/5
f 15/112/5 16/102/5 224/103/5 214/113/5
f 214/113/5 224/103/5 223/104/5 213/114/5
f 213/114/5 223/104/5 222/105/5 212/115/5
f 212/115/5 222/105/5 221/106/5 211/116/5
f 211/116/5 221/106/5 220/107/5 210/117/5
f 210/117/5 220/107/5 219/108/5 209/118/5
f 209/118/5 219/108/5 218/109/5 208/119/5
f 208/119/5 218/109/5 217/110/5 207/120/5
f 207/120/5 217/110/5 216/111/5 206/121/5
f 206/121/5 216/111/5 215/59/5 205/57/5
f 14/122/5 15/112/5 214/113/5 204/123/5
f 204/123/5 214/113/5 213/114/5 203/124/5
f 203/124/5 213/114/5 212/115/5 202/125/5
f 202/125/5 212/115/5 211/116/5 201/126/5
f 201/126/5 211/116/5 210/117/5 200/127/5
f 200/127/5 210/117/5 209/118/5 199/128/5
f 199/128/5 209/118/5 208/119/5 198/129/5
f 198/129/5 208/119/5 207/120/5 197/130/5
f 197/130/5 207/120/5 206/121/5 196/131/5
f 196/131/5 206/121/5 205/57/5 195/55/5
f 13/132/5 14/122/5 204/123/5 194/133/5
f 194/133/5 204/123/5 203/124/5 193/134/5
f 193/134/5 203/124/5 202/125/5 192/135/5
f 192/135/5 202/125/5 201/126/5 191/136/5
f 191/136/5 201/126/5 200/127/5 190/137/5
f 190/137/5 200/127/5 199/128/5 189/138/5
f 189/138/5 199/128/5 198/129/5 188/139/5
f 188/139/5 198/129/5 197/130/5 187/140/5
f 187/140/5 197/130/5 196/131/5 186/141/5
f 186/141/5 196/131/5 195/55/5 185/53/5
f 3/142/5 13/132/5 194/133/5 64/143/5
f 64/143/5 194/133/5 193/134/5 63/144/5
f 63/144/5 193/134/5 192/135/5 62/145/5
f 62/145/5 192/135/5 191/136/5 61/146/5
f 61/146/5 191/136/5 190/137/5 60/147/5
f 60/147/5 190/137/5 189/138/5 59/148/5
f 59/148/5 189/138/5 188/139/5 58/149/5
f 58/149/5 188/139/5 187/140/5 57/150/5
f 57/150/5 187/140/5 186/141/5 56/151/5
f 56/151/5 186/141/5 185/53/5 55/52/5
f 53/47/13 54/12/13 184/152/13 174/153/13
f 174/153/13 184/152/13 183/154/13 173/155/13
f 173/155/13 183/154/13 182/156/13 172/157/13
f 172/157/13 182/156/13 181/158/13 171/159/13
f 171/159/13 181/158/13 180/160/13 170/161/13
f 170/161/13 180/160/13 179/162/13 169/163/13
f 169/163/13 179/162/13 178/164/13 168/165/13
f 168/165/13 178/164/13 177/166/13 167/167/13
f 167/167/13 177/166/13 176/168/13 166/169/13
f 166/169/13 176/168/13 175/20/13 165/45/13
f 52/48/12 53/47/12 174/153/12 164/170/12
f 164/170/12 174/153/12 173/155/12 163/171/12
f 163/171/12 173/155/12 172/157/12 162/172/12
f 162/172/12 172/157/12 171/159/12 161/173/12
f 161/173/12 171/159/12 170/161/12 160/174/12
f 160/174/12 170/161/12 169/163/12 159/175/12
f 159/175/12 169/163/12 168/165/12 158/176/12
f 158/176/12 168/165/12 167/167/12 157/177/12
f 157/177/12 167/167/12 166/169/12 156/178/12
f 156/178/12 166/169/12 165/45/12 155/43/12
f 51/49/11 52/48/11 164/170/11 154/179/11
f 154/179/11 164/170/11 163/171/11 153/180/11
f 153/180/11 163/171/11 162/172/11 152/181/11
f 152/181/11 162/172/11 161/173/11 151/182/11
f 151/182/11 161/173/11 160/174/11 150/183/11
f 150/183/11 160/174/11 159/175/11 149/184/11
f 149/184/11 159/175/11 158/176/11 148/185/11
f 148/185/11 158/176/11 157/177/11 147/186/11
f 147/186/11 157/177/11 156/178/11 146/187/11
f 146/187/11 156/178/11 155/43/11 145/41/11
f 50/50/10 51/49/10 154/179/10 144/188/10
f 144/188/10 154/179/10 153/180/10 143/189/10
f 143/189/10 153/180/10 152/181/10 142/190/10
f 142/190/10 152/181/10 151/182/10 141/191/10
f 141/191/10 151/182/10 150/183/10 140/192/10
f 140/192/10 150/183/10 149/184/10 139/193/10
f 139/193/10 149/184/10 148/185/10 138/194/10
f 138/194/10 148/185/10 147/186/10 137/195/10
f 137/195/10 147/186/10 146/187/10 136/196/10
f 136/196/10 146/187/10 145/41/10 135/39/10
f 49/51/9 50/50/9 144/188/9 134/197/9
f 134/197/9 144/188/9 143/189/9 133/198/9
f 133/198/9 143/189/9 142/190/9 132/199/9
f 132/199/9 142/190/9 141/191/9 131/200/9
f 131/200/9 141/191/9 140/192/9 130/201/9
f 130/201/9 140/192/9 139/193/9 129/202/9
f 129/202/9 139/193/9 138/194/9 128/203/9
f 128/203/9 138/194/9 137/195/9 127/204/9
f 127/204/9 137/195/9 136/196/9 126/205/9
f 126/205/9 136/196/9 135/39/9 125/37/9
f 48/19/8 49/51/8 134/197/8 124/206/8
f 124/206/8 134/197/8 133/198/8 123/207/8
f 123/207/8 133/198/8 132/199/8 122/208/8
f 122/208/8 132/199/8 131/200/8 121/209/8
f 121/209/8 131/200/8 130/201/8 120/210/8
f 120/210/8 130/201/8 129/202/8 119/211/8
f 119/211/8 129/202/8 128/203/8 118/212/8
f 118/212/8 128/203/8 127/204/8 117/213/8
f 117/213/8 127/204/8 126/205/8 116/214/8
f 116/214/8 126/205/8 125/37/8 115/34/8
f 11/7/7 48/19/7 124/206/7 104/215/7
f 104/215/7 124/206/7 123/207/7 103/216/7
f 103/216/7 123/207/7 122/208/7 102/217/7
f 102/217/7 122/208/7 121/209/7 101/218/7
f 101/218/7 121/209/7 120/210/7 100/219/7
f 100/219/7 120/210/7 119/211/7 99/220/7
f 99/220/7 119/211/7 118/212/7 98/221/7
f 98/221/7 118/212/7 117/213/7 97/222/7
f 97/222/7 117/213/7 116/214/7 96/223/7
f 96/223/7 116/214/7 115/34/7 95/33/7
f 8/7/2 11/7/2 104/8/2 74/8/2
f 74/8/2 104/8/2 103/224/2 73/224/2
f 73/224/2 103/224/2 102/225/2 72/225/2
f 72/225/2 102/225/2 101/226/2 71/226/2
f 71/226/2 101/226/2 100/227/2 70/227/2
f 70/227/2 100/227/2 99/228/2 69/228/2
f 69/228/2 99/228/2 98/229/2 68/229/2
f 68/229/2 98/229/2 97/230/2 67/230/2
f 67/230/2 97/230/2 96/231/2 66/231/2
f 66/231/2 96/231/2 95/27/2 65/27/2
f 2/15/4 9/15/4 114/16/4 94/16/4
f 94/16/4 114/16/4 113/232/4 93/232/4
f 93/232/4 113/232/4 112/233/4 92/233/4
f 92/233/4 112/233/4 111/234/4 91/234/4
f 91/234/4 111/234/4 110/235/4 90/235/4
f 90/235/4 110/235/4 109/236/4 89/236/4
f 89/236/4 109/236/4 108/237/4 88/237/4
f 88/237/4 108/237/4 107/238/4 87/238/4
f 87/238/4 107/238/4 106/239/4 86/239/4
f 86/239/4 106/239/4 105/26/4 85/26/4
f 54/12/6 12/11/6 105/240/6 184/152/6
f 184/152/6 105/240/6 106/241/6 183/154/6
f 183/154/6 106/241/6 107/242/6 182/156/6
f 182/156/6 107/242/6 108/243/6 181/158/6
f 181/158/6 108/243/6 109/244/6 180/160/6
f 180/160/6 109/244/6 110/245/6 179/162/6
f 179/162/6 110/245/6 111/246/6 178/164/6
f 178/164/6 111/246/6 112/247/6 177/166/6
f 177/166/6 112/247/6 113/248/6 176/168/6
f 176/168/6 113/248/6 114/21/6 175/20/6
f 19/73/5 1/249/5 75/250/5 254/74/5
f 254/74/5 75/250/5 76/251/5 253/76/5
f 253/76/5 76/251/5 77/252/5 252/78/5
f 252/78/5 77/252/5 78/253/5 251/80/5
f 251/80/5 78/253/5 79/254/5 250/82/5
f 250/82/5 79/254/5 80/255/5 249/84/5
f 249/84/5 80/255/5 81/256/5 248/86/5
f 248/86/5 81/256/5 82/257/5 247/88/5
f 247/88/5 82/257/5 83/258/5 246/90/5
f 246/90/5 83/258/5 84/18/5 245/17/5
f 5/10/4 84/259/4 85/26/4 6/11/4
f 84/259/4 83/260/4 86/239/4 85/26/4
f 83/260/4 82/261/4 87/238/4 86/239/4
f 82/261/4 81/262/4 88/237/4 87/238/4
f 81/262/4 80/263/4 89/236/4 88/237/4
f 80/263/4 79/264/4 90/235/4 89/236/4
f 79/264/4 78/265/4 91/234/4 90/235/4
f 78/265/4 77/266/4 92/233/4 91/234/4
f 77/266/4 76/267/4 93/232/4 92/233/4
f 76/267/4 75/13/4 94/16/4 93/232/4
f 3/2/2 64/268/2 65/27/2 4/3/2
f 64/268/2 63/269/2 66/231/2 65/27/2
f 63/269/2 62/270/2 67/230/2 66/231/2
f 62/270/2 61/271/2 68/229/2 67/230/2
f 61/271/2 60/272/2 69/228/2 68/229/2
f 60/272/2 59/273/2 70/227/2 69/228/2
f 59/273/2 58/274/2 71/226/2 70/227/2
f 58/274/2 57/275/2 72/225/2 71/226/2
f 57/275/2 56/276/2 73/224/2 72/225/2
f 56/276/2 55/5/2 74/8/2 73/224/2
f 279/1/3 258/4/3 259/3/3 260/2/3
f 329/5/4 262/8/4 263/7/4 264/6/4
f 291/9/1 266/12/1 267/11/1 268/10/1
f 347/13/2 270/16/2 257/15/2 256/14/2
f 500/17/14 291/9/14 268/10/14 269/18/14
f 297/19/1 263/7/1 274/7/1 309/19/1
f 437/20/15 303/23/15 278/22/15 277/21/15
f 285/24/3 257/25/3 278/25/3 303/24/3
f 356/26/2 267/11/2 276/11/2 374/26/2
f 338/27/4 259/3/4 272/3/4 365/27/4
f 259/3/3 258/4/3 271/4/3 272/3/3
f 258/4/3 290/28/3 308/28/3 271/4/3
f 290/28/3 289/29/3 307/29/3 308/28/3
f 289/29/3 288/30/3 306/30/3 307/29/3
f 288/30/3 287/31/3 305/31/3 306/30/3
f 287/31/3 286/32/3 304/32/3 305/31/3
f 286/32/3 285/24/3 303/24/3 304/32/3
f 365/33/16 272/36/16 271/35/16 383/34/16
f 383/34/17 271/35/17 308/38/17 392/37/17
f 392/37/18 308/38/18 307/40/18 401/39/18
f 401/39/19 307/40/19 306/42/19 410/41/19
f 410/41/20 306/42/20 305/44/20 419/43/20
f 419/43/21 305/44/21 304/46/21 428/45/21
f 428/45/22 304/46/22 303/23/22 437/20/22
f 267/11/1 266/12/1 275/12/1 276/11/1
f 266/12/1 302/47/1 314/47/1 275/12/1
f 302/47/1 301/48/1 313/48/1 314/47/1
f 301/48/1 300/49/1 312/49/1 313/48/1
f 300/49/1 299/50/1 311/50/1 312/49/1
f 299/50/1 298/51/1 310/51/1 311/50/1
f 298/51/1 297/19/1 309/19/1 310/51/1
f 329/52/14 264/6/14 265/54/14 446/53/14
f 446/53/14 265/54/14 296/56/14 455/55/14
f 455/55/14 296/56/14 295/58/14 464/57/14
f 464/57/14 295/58/14 294/60/14 473/59/14
f 473/59/14 294/60/14 293/62/14 482/61/14
f 482/61/14 293/62/14 292/64/14 491/63/14
f 491/63/14 292/64/14 291/9/14 500/17/14
f 264/6/1 263/7/1 297/19/1 265/54/1
f 265/54/1 297/19/1 298/51/1 296/56/1
f 292/64/1 302/47/1 266/12/1 291/9/1
f 256/65/3 257/25/3 285/24/3 255/66/3
f 255/66/3 285/24/3 286/32/3 284/67/3
f 284/67/3 286/32/3 287/31/3 283/68/3
f 283/68/3 287/31/3 288/30/3 282/69/3
f 282/69/3 288/30/3 289/29/3 281/70/3
f 281/70/3 289/29/3 290/28/3 280/71/3
f 280/71/3 290/28/3 258/4/3 279/1/3
f 284/72/14 327/75/14 328/74/14 255/73/14
f 327/75/14 499/77/14 508/76/14 328/74/14
f 499/77/14 498/79/14 507/78/14 508/76/14
f 498/79/14 497/81/14 506/80/14 507/78/14
f 497/81/14 496/83/14 505/82/14 506/80/14
f 496/83/14 495/85/14 504/84/14 505/82/14
f 495/85/14 494/87/14 503/86/14 504/84/14
f 494/87/14 493/89/14 502/88/14 503/86/14
f 493/89/14 492/91/14 501/90/14 502/88/14
f 492/91/14 491/63/14 500/17/14 501/90/14
f 283/92/14 326/93/14 327/75/14 284/72/14
f 326/93/14 490/94/14 499/77/14 327/75/14
f 490/94/14 489/95/14 498/79/14 499/77/14
f 489/95/14 488/96/14 497/81/14 498/79/14
f 488/96/14 487/97/14 496/83/14 497/81/14
f 487/97/14 486/98/14 495/85/14 496/83/14
f 486/98/14 485/99/14 494/87/14 495/85/14
f 485/99/14 484/100/14 493/89/14 494/87/14
f 484/100/14 483/101/14 492/91/14 493/89/14
f 483/101/14 482/61/14 491/63/14 492/91/14
f 282/102/14 325/103/14 326/93/14 283/92/14
f 325/103/14 481/104/14 490/94/14 326/93/14
f 481/104/14 480/105/14 489/95/14 490/94/14
f 480/105/14 479/106/14 488/96/14 489/95/14
f 479/106/14 478/107/14 487/97/14 488/96/14
f 478/107/14 477/108/14 486/98/14 487/97/14
f 477/108/14 476/109/14 485/99/14 486/98/14
f 476/109/14 475/110/14 484/100/14 485/99/14
f 475/110/14 474/111/14 483/101/14 484/100/14
f 474/111/14 473/59/14 482/61/14 483/101/14
f 281/112/14 324/113/14 325/103/14 282/102/14
f 324/113/14 472/114/14 481/104/14 325/103/14
f 472/114/14 471/115/14 480/105/14 481/104/14
f 471/115/14 470/116/14 479/106/14 480/105/14
f 470/116/14 469/117/14 478/107/14 479/106/14
f 469/117/14 468/118/14 477/108/14 478/107/14
f 468/118/14 467/119/14 476/109/14 477/108/14
f 467/119/14 466/120/14 475/110/14 476/109/14
f 466/120/14 465/121/14 474/111/14 475/110/14
f 465/121/14 464/57/14 473/59/14 474/111/14
f 280/122/14 323/123/14 324/113/14 281/112/14
f 323/123/14 463/124/14 472/114/14 324/113/14
f 463/124/14 462/125/14 471/115/14 472/114/14
f 462/125/14 461/126/14 470/116/14 471/115/14
f 461/126/14 460/127/14 469/117/14 470/116/14
f 460/127/14 459/128/14 468/118/14 469/117/14
f 459/128/14 458/129/14 467/119/14 468/118/14
f 458/129/14 457/130/14 466/120/14 467/119/14
f 457/130/14 456/131/14 465/121/14 466/120/14
f 456/131/14 455/55/14 464/57/14 465/121/14
f 279/132/14 322/133/14 323/123/14 280/122/14
f 322/133/14 454/134/14 463/124/14 323/123/14
f 454/134/14 453/135/14 462/125/14 463/124/14
f 453/135/14 452/136/14 461/126/14 462/125/14
f 452/136/14 451/137/14 460/127/14 461/126/14
f 451/137/14 450/138/14 459/128/14 460/127/14
f 450/138/14 449/139/14 458/129/14 459/128/14
f 449/139/14 448/140/14 457/130/14 458/129/14
f 448/140/14 447/141/14 456/131/14 457/130/14
f 447/141/14 446/53/14 455/55/14 456/131/14
f 260/142/14 261/143/14 322/133/14 279/132/14
f 261/143/14 337/144/14 454/134/14 322/133/14
f 337/144/14 336/145/14 453/135/14 454/134/14
f 336/145/14 335/146/14 452/136/14 453/135/14
f 335/146/14 334/147/14 451/137/14 452/136/14
f 334/147/14 333/148/14 450/138/14 451/137/14
f 333/148/14 332/149/14 449/139/14 450/138/14
f 332/149/14 331/150/14 448/140/14 449/139/14
f 331/150/14 330/151/14 447/141/14 448/140/14
f 330/151/14 329/52/14 446/53/14 447/141/14
f 314/47/22 320/153/22 321/152/22 275/12/22
f 320/153/22 436/155/22 445/154/22 321/152/22
f 436/155/22 435/157/22 444/156/22 445/154/22
f 435/157/22 434/159/22 443/158/22 444/156/22
f 434/159/22 433/161/22 442/160/22 443/158/22
f 433/161/22 432/163/22 441/162/22 442/160/22
f 432/163/22 431/165/22 440/164/22 441/162/22
f 431/165/22 430/167/22 439/166/22 440/164/22
f 430/167/22 429/169/22 438/168/22 439/166/22
f 429/169/22 428/45/22 437/20/22 438/168/22
f 313/48/21 319/170/21 320/153/21 314/47/21
f 319/170/21 427/171/21 436/155/21 320/153/21
f 427/171/21 426/172/21 435/157/21 436/155/21
f 426/172/21 425/173/21 434/159/21 435/157/21
f 425/173/21 424/174/21 433/161/21 434/159/21
f 424/174/21 423/175/21 432/163/21 433/161/21
f 423/175/21 422/176/21 431/165/21 432/163/21
f 422/176/21 421/177/21 430/167/21 431/165/21
f 421/177/21 420/178/21 429/169/21 430/167/21
f 420/178/21 419/43/21 428/45/21 429/169/21
f 312/49/20 318/179/20 319/170/20 313/48/20
f 318/179/20 418/180/20 427/171/20 319/170/20
f 418/180/20 417/181/20 426/172/20 427/171/20
f 417/181/20 416/182/20 425/173/20 426/172/20
f 416/182/20 415/183/20 424/174/20 425/173/20
f 415/183/20 414/184/20 423/175/20 424/174/20
f 414/184/20 413/185/20 422/176/20 423/175/20
f 413/185/20 412/186/20 421/177/20 422/176/20
f 412/186/20 411/187/20 420/178/20 421/177/20
f 411/187/20 410/41/20 419/43/20 420/178/20
f 311/50/19 317/188/19 318/179/19 312/49/19
f 317/188/19 409/189/19 418/180/19 318/179/19
f 409/189/19 408/190/19 417/181/19 418/180/19
f 408/190/19 407/191/19 416/182/19 417/181/19
f 407/191/19 406/192/19 415/183/19 416/182/19
f 406/192/19 405/193/19 414/184/19 415/183/19
f 405/193/19 404/194/19 413/185/19 414/184/19
f 404/194/19 403/195/19 412/186/19 413/185/19
f 403/195/19 402/196/19 411/187/19 412/186/19
f 402/196/19 401/39/19 410/41/19 411/187/19
f 310/51/18 316/197/18 317/188/18 311/50/18
f 316/197/18 400/198/18 409/189/18 317/188/18
f 400/198/18 399/199/18 408/190/18 409/189/18
f 399/199/18 398/200/18 407/191/18 408/190/18
f 398/200/18 397/201/18 406/192/18 407/191/18
f 397/201/18 396/202/18 405/193/18 406/192/18
f 396/202/18 395/203/18 404/194/18 405/193/18
f 395/203/18 394/204/18 403/195/18 404/194/18
f 394/204/18 393/205/18 402/196/18 403/195/18
f 393/205/18 392/37/18 401/39/18 402/196/18
f 309/19/17 315/206/17 316/197/17 310/51/17
f 315/206/17 391/207/17 400/198/17 316/197/17
f 391/207/17 390/208/17 399/199/17 400/198/17
f 390/208/17 389/209/17 398/200/17 399/199/17
f 389/209/17 388/210/17 397/201/17 398/200/17
f 388/210/17 387/211/17 396/202/17 397/201/17
f 387/211/17 386/212/17 395/203/17 396/202/17
f 386/212/17 385/213/17 394/204/17 395/203/17
f 385/213/17 384/214/17 393/205/17 394/204/17
f 384/214/17 383/34/17 392/37/17 393/205/17
f 274/7/16 273/215/16 315/206/16 309/19/16
f 273/215/16 373/216/16 391/207/16 315/206/16
f 373/216/16 372/217/16 390/208/16 391/207/16
f 372/217/16 371/218/16 389/209/16 390/208/16
f 371/218/16 370/219/16 388/210/16 389/209/16
f 370/219/16 369/220/16 387/211/16 388/210/16
f 369/220/16 368/221/16 386/212/16 387/211/16
f 368/221/16 367/222/16 385/213/16 386/212/16
f 367/222/16 366/223/16 384/214/16 385/213/16
f 366/223/16 365/33/16 383/34/16 384/214/16
f 263/7/4 262/8/4 273/8/4 274/7/4
f 262/8/4 346/224/4 373/224/4 273/8/4
f 346/224/4 345/225/4 372/225/4 373/224/4
f 345/225/4 344/226/4 371/226/4 372/225/4
f 344/226/4 343/227/4 370/227/4 371/226/4
f 343/227/4 342/228/4 369/228/4 370/227/4
f 342/228/4 341/229/4 368/229/4 369/228/4
f 341/229/4 340/230/4 367/230/4 368/229/4
f 340/230/4 339/231/4 366/231/4 367/230/4
f 339/231/4 338/27/4 365/27/4 366/231/4
f 257/15/2 270/16/2 277/16/2 278/15/2
f 270/16/2 364/232/2 382/232/2 277/16/2
f 364/232/2 363/233/2 381/233/2 382/232/2
f 363/233/2 362/234/2 380/234/2 381/233/2
f 362/234/2 361/235/2 379/235/2 380/234/2
f 361/235/2 360/236/2 378/236/2 379/235/2
f 360/236/2 359/237/2 377/237/2 378/236/2
f 359/237/2 358/238/2 376/238/2 377/237/2
f 358/238/2 357/239/2 375/239/2 376/238/2
f 357/239/2 356/26/2 374/26/2 375/239/2
f 275/12/15 321/152/15 374/240/15 276/11/15
f 321/152/15 445/154/15 375/241/15 374/240/15
f 445/154/15 444/156/15 376/242/15 375/241/15
f 444/156/15 443/158/15 377/243/15 376/242/15
f 443/158/15 442/160/15 378/244/15 377/243/15
f 442/160/15 441/162/15 379/245/15 378/244/15
f 441/162/15 440/164/15 380/246/15 379/245/15
f 440/164/15 439/166/15 381/247/15 380/246/15
f 439/166/15 438/168/15 382/248/15 381/247/15
f 438/168/15 437/20/15 277/21/15 382/248/15
f 255/73/14 328/74/14 347/250/14 256/249/14
f 328/74/14 508/76/14 348/251/14 347/250/14
f 508/76/14 507/78/14 349/252/14 348/251/14
f 507/78/14 506/80/14 350/253/14 349/252/14
f 506/80/14 505/82/14 351/254/14 350/253/14
f 505/82/14 504/84/14 352/255/14 351/254/14
f 504/84/14 503/86/14 353/256/14 352/255/14
f 503/86/14 502/88/14 354/257/14 353/256/14
f 502/88/14 501/90/14 355/258/14 354/257/14
f 501/90/14 500/17/14 269/18/14 355/258/14
f 268/10/2 267/11/2 356/26/2 269/259/2
f 269/259/2 356/26/2 357/239/2 355/260/2
f 355/260/2 357/239/2 358/238/2 354/261/2
f 354/261/2 358/238/2 359/237/2 353/262/2
f 353/262/2 359/237/2 360/236/2 352/263/2
f 352/263/2 360/236/2 361/235/2 351/264/2
f 351/264/2 361/235/2 362/234/2 350/265/2
f 350/265/2 362/234/2 363/233/2 349/266/2
f 349/266/2 363/233/2 364/232/2 348/267/2
f 348/267/2 364/232/2 270/16/2 347/13/2
f 260/2/4 259/3/4 338/27/4 261/268/4
f 261/268/4 338/27/4 339/231/4 337/269/4
f 337/269/4 339/231/4 340/230/4 336/270/4
f 336/270/4 340/230/4 341/229/4 335/271/4
f 335/271/4 341/229/4 342/228/4 334/272/4
f 334/272/4 342/228/4 343/227/4 333/273/4
f 333/273/4 343/227/4 344/226/4 332/274/4
f 332/274/4 344/226/4 345/225/4 331/275/4
f 331/275/4 345/225/4 346/224/4 330/276/4
f 330/276/4 346/224/4 262/8/4 329/5/4
f 35/51/23 32/56/23 296/56/23 298/51/23
f 30/60/24 29/62/24 293/62/24 294/60/24
f 37/49/25 36/50/25 299/50/25 300/49/25
f 28/64/26 39/47/26 302/47/26 292/64/26
f 31/58/24 30/60/24 294/60/24 295/58/24
f 38/48/25 37/49/25 300/49/25 301/48/25
f 32/56/24 31/58/24 295/58/24 296/56/24
f 39/47/25 38/48/25 301/48/25 302/47/25
f 29/62/24 28/64/24 292/64/24 293/62/24
f 36/50/25 35/51/25 298/51/25 299/50/25
